<?xml version="1.0" encoding="utf-8"?>
<!-- Generator: Adobe Illustrator 21.1.0, SVG Export Plug-In . SVG Version: 6.00 Build 0)  -->
<svg version="1.1" id="Layer_1" xmlns="http://www.w3.org/2000/svg" xmlns:xlink="http://www.w3.org/1999/xlink" x="0px" y="0px"
	 viewBox="0 0 206.7 141.7" style="enable-background:new 0 0 206.7 141.7;" xml:space="preserve">
<style type="text/css">
	.st0{fill:#FFFFFF;}
	.st1{fill:#FFE01E;}
</style>
<path class="st0" d="M10.5,30c-0.1,3.3-0.2,6.3-0.2,9.1c0,2.8,0.1,5.9,0.2,9.1c0.2,6,2,10.9,5.5,14.6c3.4,3.7,8.4,5.6,14.8,5.6
	c3.5,0,6.4-0.4,8.8-1.3c2.4-0.9,4.4-2,5.9-3.4c1.6-1.4,2.8-3,3.6-4.7c0.8-1.8,1.5-3.6,1.9-5.4c0.1-0.8,0.5-1.4,1.1-1.8
	c0.6-0.4,1.2-0.6,1.7-0.6h5c0.7,0,1.2,0.2,1.7,0.7c0.5,0.5,0.7,1,0.7,1.7c-0.1,2.4-0.7,5-1.8,7.8c-1.2,2.8-3,5.5-5.4,8
	c-2.4,2.5-5.5,4.6-9.3,6.2c-3.8,1.7-8.4,2.5-13.9,2.5c-4.7,0-8.9-0.7-12.6-2.2s-6.9-3.5-9.5-6.1c-2.6-2.6-4.7-5.7-6.1-9.3
	C1.1,57,0.3,53.1,0.2,48.8c-0.2-6.4-0.2-12.9,0-19.3c0.1-4.2,0.9-8.1,2.4-11.7C4,14.1,6.1,11,8.7,8.4c2.6-2.6,5.8-4.7,9.5-6.1
	C21.9,0.7,26.1,0,30.8,0c5.4,0,10.1,0.8,13.9,2.5c3.8,1.7,6.9,3.7,9.3,6.2c2.4,2.5,4.2,5.2,5.4,8c1.2,2.8,1.8,5.4,1.8,7.8
	c0,0.7-0.2,1.2-0.7,1.7c-0.5,0.5-1,0.7-1.7,0.7h-5c-0.6,0-1.2-0.2-1.7-0.6c-0.6-0.4-0.9-1-1.1-1.8c-0.4-1.8-1.1-3.6-1.9-5.4
	c-0.8-1.8-2-3.3-3.6-4.7C44,13.1,42,12,39.6,11.1c-2.4-0.9-5.3-1.3-8.8-1.3c-6.4,0-11.4,1.9-14.8,5.6C12.5,19.1,10.7,24,10.5,30z"/>
<path class="st0" d="M122.9,60H85.2l-5.7,14.5c-0.2,0.6-0.6,1.2-1.2,1.8c-0.6,0.6-1.6,0.9-3,0.9h-4c-0.7,0-1.2-0.2-1.7-0.7
	c-0.5-0.5-0.7-1-0.7-1.7c0-0.4,0.1-0.9,0.4-1.5L95.9,4.7c0.4-0.8,0.9-1.6,1.6-2.4c0.7-0.8,1.8-1.2,3.3-1.2h6.5
	c1.4,0,2.5,0.4,3.3,1.2c0.7,0.8,1.3,1.6,1.6,2.4l26.5,68.6c0.3,0.7,0.4,1.2,0.4,1.5c0,0.7-0.2,1.2-0.7,1.7c-0.5,0.5-1,0.7-1.7,0.7
	h-4c-1.4,0-2.5-0.3-3-0.9c-0.6-0.6-1-1.2-1.2-1.8L122.9,60z M89,50.2h30.1l-15-38.8L89,50.2z"/>
<path class="st0" d="M144.6,29.2c0.1-4,0.9-7.8,2.1-11.3c1.3-3.5,3.2-6.7,5.8-9.3c2.6-2.7,5.8-4.8,9.6-6.3c3.8-1.5,8.4-2.3,13.6-2.3
	c4.9,0,9.3,0.7,13,2.2c3.7,1.4,6.8,3.2,9.3,5.4c2.5,2.1,4.4,4.4,5.6,6.8c1.3,2.4,1.9,4.6,2,6.6c0.1,0.7-0.1,1.2-0.7,1.7
	c-0.5,0.5-1.1,0.7-1.7,0.7h-4.5c-1.7,0-2.8-0.4-3.2-1.2c-0.9-1.7-1.9-3.4-3-4.9c-1.1-1.5-2.4-2.8-4-3.9s-3.4-2-5.5-2.6
	c-2.1-0.7-4.7-1-7.6-1c-3,0-5.7,0.4-8.2,1.2c-2.5,0.8-4.7,2.1-6.5,3.7c-1.8,1.7-3.3,3.7-4.3,6.2c-1.1,2.5-1.7,5.4-1.7,8.7
	c-0.1,3.3-0.2,6.3-0.2,9c0,2.8,0.1,5.8,0.2,9c0.1,3.5,0.7,6.5,1.7,9.1c1.1,2.6,2.5,4.8,4.3,6.5c1.8,1.7,4,3,6.5,3.8
	c2.5,0.8,5.2,1.2,8.2,1.2c2.9,0,5.6-0.4,8.1-1.1c2.5-0.7,4.7-1.9,6.6-3.5c1.9-1.6,3.3-3.7,4.4-6.4c1-2.6,1.6-5.8,1.6-9.6v-3h-15.6
	c-0.8,0-1.5-0.3-2.1-0.9c-0.6-0.6-0.9-1.3-0.9-2.1V38c0-0.8,0.3-1.5,0.9-2.1c0.6-0.6,1.3-0.9,2.1-0.9h23c0.8,0,1.5,0.3,2.1,0.9
	c0.6,0.6,0.9,1.3,0.9,2.1v10.3c0,4.3-0.7,8.3-2.1,12c-1.4,3.7-3.4,6.8-6,9.5c-2.6,2.6-5.9,4.7-9.8,6.2c-3.9,1.5-8.3,2.2-13.2,2.2
	c-5.2,0-9.7-0.8-13.6-2.3c-3.8-1.6-7-3.7-9.6-6.4c-2.5-2.7-4.5-5.8-5.8-9.5c-1.3-3.6-2-7.5-2.2-11.7C144.3,42,144.3,35.6,144.6,29.2
	z"/>
<path class="st0" d="M13,107c3.4,0,6.2,0.9,8.2,2.6c2,1.7,3.1,4.2,3.1,7.6c0,3.3-1,5.9-3.1,7.6c-2,1.7-4.8,2.6-8.2,2.6H3.1v12.9
	c0,0.7-0.4,1.1-1.1,1.1H1.1c-0.7,0-1.1-0.4-1.1-1.1v-32.1c0-0.7,0.4-1.1,1.1-1.1H13z M3.1,124.3h9.6c2.9,0,5-0.6,6.4-1.8
	c1.4-1.2,2.1-3,2.1-5.4c0-2.4-0.7-4.1-2.1-5.4c-1.4-1.2-3.5-1.8-6.4-1.8H3.1V124.3z"/>
<path class="st0" d="M41.8,107c3.4,0,6.2,0.8,8.2,2.5c2,1.6,3.1,4.1,3.1,7.4c0,2.6-0.6,4.7-1.9,6.3c-1.3,1.6-3.1,2.6-5.5,3.2
	l7.9,13.4c0.1,0.2,0.1,0.4,0.1,0.5c0,0.3-0.1,0.5-0.3,0.7c-0.2,0.2-0.4,0.3-0.7,0.3h-0.6c-0.6,0-1-0.1-1.2-0.4s-0.5-0.6-0.7-0.9
	l-7.8-13.2H32.4v13.4c0,0.7-0.4,1.1-1.1,1.1h-0.9c-0.7,0-1.1-0.4-1.1-1.1v-32.1c0-0.7,0.4-1.1,1.1-1.1H41.8z M32.4,123.8h9.2
	c5.6,0,8.4-2.3,8.4-7s-2.8-7-8.4-7h-9.2V123.8z"/>
<path class="st0" d="M72.2,106.5c1.9,0,3.6,0.3,5.2,0.8c1.6,0.6,2.9,1.4,4,2.5c1.1,1.1,2,2.5,2.6,4.2c0.6,1.7,1,3.7,1.1,6
	c0.1,1.5,0.1,2.8,0.1,4.1s0,2.6-0.1,4.1c-0.1,4.6-1.3,8-3.5,10.2c-2.2,2.2-5.4,3.3-9.4,3.3c-4.1,0-7.2-1.1-9.4-3.3
	c-2.2-2.2-3.4-5.6-3.5-10.2c-0.1-1.5-0.1-2.8-0.1-4.1s0-2.6,0.1-4.1c0.1-2.3,0.4-4.3,1.1-6c0.6-1.7,1.5-3.1,2.6-4.2
	c1.1-1.1,2.5-2,4-2.5S70.3,106.5,72.2,106.5z M72.2,109.4c-1.4,0-2.6,0.2-3.8,0.6c-1.2,0.4-2.2,1.1-3.1,1.9c-0.9,0.9-1.6,2-2.1,3.4
	c-0.5,1.4-0.8,3-0.9,4.9c0,0.8-0.1,1.4-0.1,2.1c0,0.6,0,1.2,0,1.8c0,0.6,0,1.2,0,1.8s0,1.3,0.1,2c0.1,1.9,0.4,3.6,0.9,4.9
	c0.5,1.4,1.2,2.5,2.1,3.4c0.9,0.9,1.9,1.5,3.1,1.9c1.2,0.4,2.5,0.6,3.9,0.6c1.4,0,2.7-0.2,3.9-0.6c1.2-0.4,2.2-1.1,3.1-1.9
	c0.9-0.9,1.6-2,2.1-3.4c0.5-1.4,0.8-3,0.9-4.9c0-0.7,0-1.4,0-2s0-1.2,0-1.8c0-0.6,0-1.2,0-1.8c0-0.6,0-1.3,0-2.1
	c-0.1-1.9-0.4-3.5-0.9-4.9c-0.5-1.4-1.2-2.5-2.1-3.4c-0.9-0.9-1.9-1.5-3.1-1.9C74.9,109.6,73.6,109.4,72.2,109.4z"/>
<path class="st0" d="M114.4,134c-0.5,1.6-1.3,2.9-2.3,4.1c-1,1.1-2.3,2-3.7,2.7c-1.5,0.6-3.2,1-5.1,1c-1.6,0-3.1-0.2-4.5-0.6
	c-1.4-0.4-2.6-1-3.7-1.8c-1.1-0.8-1.9-1.9-2.6-3.1c-0.7-1.3-1-2.7-1.1-4.5c0-0.3,0.1-0.5,0.2-0.8c0.2-0.2,0.4-0.3,0.8-0.3h1
	c0.3,0,0.6,0.1,0.8,0.3c0.2,0.2,0.3,0.4,0.3,0.7c0.1,1.3,0.4,2.4,0.9,3.3c0.5,0.9,1.2,1.6,2,2.2c0.8,0.6,1.7,1,2.7,1.2
	c1,0.3,2.1,0.4,3.2,0.4c1.4,0,2.7-0.2,3.8-0.7c1.1-0.5,2-1.2,2.7-2.1c0.7-0.9,1.3-2,1.7-3.2c0.4-1.2,0.6-2.6,0.6-4.1v-18.8H94
	c-0.7,0-1.1-0.4-1.1-1.1V108c0-0.7,0.4-1.1,1.1-1.1h20c0.8,0,1.1,0.4,1.1,1.1v20.7C115.1,130.7,114.9,132.4,114.4,134z"/>
<path class="st0" d="M144.2,138.3c0.8,0,1.1,0.4,1.1,1.1v0.7c0,0.7-0.4,1.1-1.1,1.1h-19.5c-0.7,0-1.1-0.4-1.1-1.1v-32.1
	c0-0.7,0.4-1.1,1.1-1.1h19.1c0.7,0,1.1,0.4,1.1,1.1v0.7c0,0.7-0.4,1.1-1.1,1.1h-17.1v12.5h16c0.8,0,1.1,0.4,1.1,1.1v0.7
	c0,0.7-0.4,1.1-1.1,1.1h-16v13H144.2z"/>
<path class="st0" d="M155.2,120c-0.1,2.7-0.1,5.5,0,8.2c0.1,3.7,1.1,6.4,2.8,8.1c1.7,1.7,4.1,2.5,7.1,2.5c1.3,0,2.5-0.1,3.6-0.4
	c1.1-0.2,2.1-0.7,2.9-1.2c0.8-0.6,1.5-1.4,2.1-2.3c0.6-1,1-2.2,1.4-3.6c0.1-0.4,0.2-0.7,0.4-0.8c0.2-0.1,0.4-0.2,0.7-0.2h1
	c0.3,0,0.5,0.1,0.8,0.3c0.2,0.2,0.3,0.4,0.3,0.7c-0.1,1.2-0.3,2.4-0.8,3.6c-0.5,1.2-1.3,2.4-2.3,3.4c-1,1-2.4,1.9-4,2.5
	c-1.6,0.7-3.6,1-5.9,1c-2.2,0-4.1-0.3-5.7-1c-1.6-0.7-2.9-1.6-4-2.8c-1.1-1.2-1.9-2.6-2.4-4.2c-0.5-1.6-0.8-3.4-0.9-5.3
	c-0.1-1.3-0.1-2.8-0.1-4.3s0-3,0.1-4.4c0.1-1.9,0.4-3.7,0.9-5.3c0.5-1.6,1.3-3,2.4-4.2s2.4-2.1,4-2.8c1.6-0.7,3.5-1,5.7-1
	c2.3,0,4.3,0.3,5.9,1c1.6,0.7,3,1.5,4,2.5c1,1,1.8,2.2,2.3,3.4c0.5,1.2,0.8,2.4,0.8,3.6c0,0.3-0.1,0.5-0.3,0.7
	c-0.2,0.2-0.5,0.3-0.8,0.3h-1c-0.3,0-0.5-0.1-0.7-0.2c-0.2-0.1-0.3-0.4-0.4-0.8c-0.3-1.5-0.8-2.7-1.4-3.6c-0.6-1-1.3-1.7-2.1-2.3
	c-0.8-0.6-1.8-1-2.9-1.2c-1.1-0.2-2.3-0.4-3.6-0.4c-3,0-5.4,0.8-7.1,2.5S155.3,116.3,155.2,120z"/>
<path class="st0" d="M205.6,107c0.8,0,1.1,0.4,1.1,1.1v0.7c0,0.7-0.4,1.1-1.1,1.1h-9.6v30.3c0,0.7-0.4,1.1-1.1,1.1h-0.9
	c-0.7,0-1.1-0.4-1.1-1.1v-30.3h-9.7c-0.7,0-1.1-0.4-1.1-1.1v-0.7c0-0.7,0.4-1.1,1.1-1.1H205.6z"/>
<path class="st1" d="M101.3,93.8H94c-0.7,0-1.1-0.4-1.1-1.1V92c0-0.7,0.4-1.1,1.1-1.1h20c0.8,0,1.1,0.4,1.1,1.1v0.7
	c0,0.7-0.4,1.1-1.1,1.1h-9.6H101.3z"/>
</svg>
