<?xml version="1.0" encoding="utf-8"?>
<!-- Generator: Adobe Illustrator 21.1.0, SVG Export Plug-In . SVG Version: 6.00 Build 0)  -->
<svg version="1.1" id="Layer_1" xmlns="http://www.w3.org/2000/svg" xmlns:xlink="http://www.w3.org/1999/xlink" x="0px" y="0px"
	 viewBox="0 0 1055.9 585.4" style="enable-background:new 0 0 1055.9 585.4;" xml:space="preserve">
<style type="text/css">
	.st0{fill:#FFFFFF;}
	.st1{enable-background:new    ;}
</style>
<g>
	<polygon class="st0" points="260,470.9 20,470.9 20,90.7 315.6,90.7 315.6,70.7 0,70.7 0,490.9 260,490.9 	"/>
	<polygon class="st0" points="731.4,70.7 731.4,90.7 1035.9,90.7 1035.9,470.9 795.9,470.9 795.9,490.9 1055.9,490.9 1055.9,70.7 	
		"/>
</g>
<g class="st1">
	<path class="st0" d="M431.8,52.4c0,15.7-7.8,27.6-39.4,56.4h41.5l-2.4,18.1h-66v-16.8c34-33.6,42-42.7,42-55.3
		c0-8.2-5.1-13.2-13-13.2c-7.4,0-12.4,3.3-18.3,10.5L362.1,41c8.1-10.6,19.6-17.5,34.8-17.5C419.5,23.5,431.8,36.7,431.8,52.4z"/>
	<path class="st0" d="M526.9,76.4c0,33.9-13.3,53.1-38.2,53.1s-38.2-19.2-38.2-53.1c0-34,13.3-52.9,38.2-52.9S526.9,42.4,526.9,76.4
		z M474.7,76.4c0,26.8,4,35.5,13.9,35.5c9.8,0,13.9-8.1,13.9-35.5c0-27.6-4.2-35.4-13.9-35.4C478.8,41,474.7,49.6,474.7,76.4z"/>
	<path class="st0" d="M571,127V48.7L549.3,62l-10.3-15.7l34.2-20.7h21.1V127H571z"/>
	<path class="st0" d="M642.9,129.4l-21.4-7.2l34-78.7h-40.9V25.6h65.5v16L642.9,129.4z"/>
</g>
<g class="st1">
	<path class="st0" d="M331.7,446.5v24.9h31.9v17.2h-31.9v26.5h39.1v17.7h-63.7V428.9h63.7l-2.5,17.5H331.7z"/>
	<path class="st0" d="M410.3,532.9l-30-103.9h25.9l19.8,84.7l18.6-84.7h25.2l-28.9,103.9H410.3z"/>
	<path class="st0" d="M508.1,446.5v24.9H540v17.2h-31.9v26.5h39.1v17.7h-63.7V428.9h63.7l-2.5,17.5H508.1z"/>
	<path class="st0" d="M617.1,532.9l-30-80.5c1.2,9.5,3.1,23.2,3.1,42.4v38.1h-21.9V428.9H599l30.7,80.7c-1.3-8.4-3.3-22-3.3-38.7
		v-42h22v103.9H617.1z"/>
	<path class="st0" d="M716.9,447.8v85h-24.6v-85h-26.8v-18.9h79.5l-2.4,18.9H716.9z"/>
</g>
<g class="st1">
	<path class="st0" d="M224.7,196.2c0.2,1,0.2,1.6,0.2,2.2s0,1.6-1.6,5.6c-2.8,7-5.2,11-7,17.6c-0.6,2.2-3.2,3.8-6.2,3.8
		c-1.8,0-4.2-0.6-5.8-0.8c-1.6-0.2-6.6-3.6-6.6-6c0-7.6,6.2-10.4,7-16.2c0.2-1.4,2.4-3.6,2.4-6c0-2.2-0.4-3-1.8-3
		c-5,0-13.4,4.6-17,8c-7.8,7.2-9.6,9.6-22.4,27c-11.2,15.2-19.6,35.2-25.4,54.2c-0.8,2.6-1,10-1,11.6c0,1.8,1.4,6,2.6,7
		c3.4,2.8,5.4,5.8,8.6,5.8c11.4,0,26.6-12.2,39.6-25.2c3.2-3.2,4-4,7.6-4h3.2c2.6,0,5,0.8,6.8,3.8c1,1.6,1.2,2.4,1.2,3.2
		c0,1-1,1.4-2.6,3c-14.8,14.2-28.6,31.8-50,31.8c-4.6,0-12.2-1.2-15.6-2.8c-6-2.8-15.4-9.8-16.2-15.4c-0.6-4.6-1-8.6-1-12.2
		c0-7.8,2.2-18.8,2.6-20c11.2-31.6,30.4-67.8,61-85.6c2.4-1.4,11.2-3.4,16.6-3.4c3,0,5.6,0.4,8.6,1.8c1.2,0.6,2.4,1.2,2.8,1.8
		C217.3,186.8,223.5,190.6,224.7,196.2z"/>
	<path class="st0" d="M307.9,231.8c1,0,4,0.2,5.6,2.6c0.4,0.6,0.4,0.8,0.4,1.2c0,0.8-0.4,1.6-0.8,2.2c-8.8,12-19.4,27-23.2,42.4
		c-1.4,5.6-2.8,11.6-2.8,17.8c0,5.2,1.2,10.4,4.2,15c0.2,0.4,0.4,0.8,0.4,1.2c0,0.4-0.8,2.4-4.2,2.8c-1.2,0.2-2.6,0.8-3.8,0.8
		c-3,0-7.4-1.4-8.6-4c-2.6-5.8-3.4-11.6-3.4-17.2c0-6,0.8-9.4,0.8-10c0-0.8,0-1-0.8-1s-2.6,1.4-4.8,3.6l-10.8,10
		c-10.4,9.8-16.8,12.6-23.8,15c-1.2,0.4-2.4,0.8-3.2,0.8c-2.2,0-4.6-1.4-14-9c-1-0.8-4.4-4.2-4.4-11.8c0-6.6,2.2-15,12-29.6
		c11.8-17.6,22.8-25.6,28.8-30c9.8-7.2,20.2-12.4,32-15.8c1.4-0.4,3-0.6,4.4-0.6c4.6,0,8.6,2.2,12.2,5.8c1,1,2.6,2.8,3,4
		C303.9,230,305.7,231.8,307.9,231.8z M284.1,232.6c-18.8,10-33.6,21-45,34.8c-8.4,10.2-15,22-15,27.8c0,2.4,0.8,5.4,4.4,5.4
		c1.6,0,6.2-2.2,9.8-5.6c18.6-17.4,39.6-30.8,49.8-49.8c1.4-2.6,3.6-5.4,5.8-7.6c0.6-0.6,1-1.8,1-3c0-1.4-1.2-4-4.6-4
		C289.7,230.6,286.7,231.2,284.1,232.6z"/>
	<path class="st0" d="M370.9,293.6c0,0.6,0.2,0.8,0.8,0.8c10-8.6,21.8-16.8,33.4-23.6c3.4-2,3.8-2,4.8-2c1.8,0,4,0.8,5.2,2
		c0.8,0.8,1.2,2,1.2,3c0,0.4,0,2.2-1.6,3.4c-37,27.8-56.6,45.8-66.8,70c-6.8,16.4-14.2,33.6-16.6,38c-4.2,7.8-6.8,8.4-14.4,8.4
		c-3.8,0-9.4-2-10.4-5.8c-0.4-1.4-0.6-3-0.6-4.4c0-5,3.6-11.6,13.6-27c15.2-23.4,17.8-18,39.6-68.4v-0.4c0-0.2-0.2-0.4-0.4-0.4
		s-0.4,0-0.6,0.2c-9,8.6-17.6,18.2-27.6,18.2c-2,0-4.2-0.4-6-1.2c-4.2-1.8-8.4-5.6-12-9.2c-1-1-1.4-1.6-1.4-5.8
		c0-8.6,3.8-14.2,5.8-18.6c2.4-5.2,12.6-18.2,19.6-26c21-23.6,37.4-25.4,38.2-25.4c8.6,0,16.4,3,20.6,8.6c1.8,2.4,2.2,4.6,2.2,7
		c0,3-0.2,5.2-1.6,7.8C375.1,280,370.9,291.4,370.9,293.6z M383.7,235.4c0-0.4-0.4-0.8-0.4-1.2c0-0.6,0-1.2-2-2
		c-1-0.4-2.2-0.6-3.4-0.6c-3.6,0-6.4,2-9.2,4.2c-4,3.2-5.6,3.4-8.4,6c-10.8,10-26.4,28.8-30.6,38.6c-1.2,2.8-2.4,6.4-2.4,7.6
		c0,0.8,1.6,1.6,2.4,1.6c1,0,2.4,0,4-1c18-11.4,37.2-33.4,49.4-51.8C383.5,236.2,383.7,235.8,383.7,235.4z"/>
	<path class="st0" d="M477.3,267.4c-2,1.6-12,5.8-20.2,5.8c-7.4,0-9-3-12.6-5.4c-0.6-0.4-1-0.8-1.6-0.8s-0.8,0.2-1.6,2.6
		c-6,18-12.2,45-12.2,48c0,1-0.2,1.4-1.4,2.2c-1.4,1-3,1.6-4.6,1.6c-1,0-2,0-2.6-0.6c-3.2-3.2-4.4-1.8-7.4-4.8
		c-0.4-0.4-0.6-0.6-0.6-1.2c0-0.4,0.2-1.4,0.8-3.8c1.6-6.4,4.2-19.4,6.8-26c0.4-1,1.2-2.8,1.2-3.8c0-4.8,6.6-19.4,7.4-25.2
		c0-0.8,0-1-0.8-1.6c-1.6-1.2-3.8-2.8-3.8-5c0-1.6,0.4-2,1.2-2.2c0.8-0.2,3-2.4,6.4-2.4c0.4,0,0.6-0.2,0.8-0.8
		c3.6-11,4.8-12.8,6.6-20.2c0-0.8,0-1-1.2-1c-0.6,0-1,0-2.6-1c-3.6-2.2-3.4-3.6-4.6-4.8c-0.8-0.8-1.4-1.6-1.4-2.2c0-2.8,1.6-5,7-8.4
		c19.8-12.6,39.8-25.8,64.4-25.8c5.8,0,9,0,14,4.2c4.6,3.8,6.8,6.2,6.8,14.2c0,10.8-4.2,18.4-9.2,27.6
		C503.9,242.2,490.5,257,477.3,267.4z M499.5,195.4c-0.8,0-1.6,0-3.6,0.6c-11.6,3.4-23.8,4.4-33,13.6c-5.2,14.4-12,29.4-15,43.8
		c5.4,4.6,8.8,7.4,11.6,7.4c1,0,1.2,0,3-1.2c13-8.6,25-22,32.4-35.6c3.8-7,9.6-20.2,9.6-26.6C504.5,196.2,504.5,195.4,499.5,195.4z"
		/>
	<path class="st0" d="M543.7,238.6c0,2.2-0.4,4.4-1.2,6.8c-0.6,2.4-0.8,2.8-0.8,3.2c0,0.6,0,0.8,0.6,0.8c0.2,0,1-0.2,2.6-1.6
		c11-8.4,20.6-14,27.8-16.4c0.6-0.2,1.8-0.4,2.4-0.4c5.6,0,11.2,1.6,14.6,5.6c0.8,0.8,1.4,2.2,1.4,3.4c0,6.2-5.4,8.8-7,8.8
		c-3,0-6.2-2-9-2c-0.6,0-1.4,0-3.2,0.8c-21.8,10.2-43.4,28-50.4,57.4c-1.4,6-3.6,8.6-5,9.6c-1,1.2-2.8,1.8-3.6,1.8
		c-3.2-0.2-4.6-2.6-6-4.2c-2-2-3.6-5.2-3.8-7.6c0-6.8,8.4-13.4,10.8-21c5-15.2,10.6-30.2,13.8-46.2c0.2-1.8,0.4-2.8,0.4-3.2
		c0-1.2-1.6-2.8-1.8-4.6c0-1.6,3.2-4.4,7.8-4.4c2.8,0,6,1.2,6.6,2.2C542.5,230.2,543.7,233.8,543.7,238.6z"/>
	<path class="st0" d="M644.7,234c8,0,12.6-0.6,17.2-0.6c6.4,0,12.4,2,12.4,5.2c0,2.6-5,3.2-5.6,4.2c-0.4,0.8-0.8,1-2.2,1.2
		c-4,0.6-9.8,2.6-15,3.4c-4,0.6-6.4,0.6-7.8,0.6c-1.6,0-2,0.2-2.4,1.6c-5.2,21.4-12.4,40-25.2,53.6c-5.6,6-11,11.8-18,11.8
		c-1.8,0-3.6-0.4-4.8-1c-7.6-3.6-13.2-8-15-12.6c-2.2-5.6-3-11.6-3-16.6c0-16.4,8.2-30.8,17.4-44.6c2.8-4.2,2.8-3.2,4.8-6
		c6.4-9,14.8-18.4,23.6-18.4c3.2,0,7.2,0.8,10.6,3.8c1.6,1.4,2.2,1.8,2.8,3.4C636.3,228,638.9,234,644.7,234z M622.7,233.2
		c-0.6-2-1.2-3.4-2-3.4s-2,0.8-3,2c-0.8,1-2.8,2-3.8,3.4c-6.2,7.8-25,32.6-25,56c0,0.6,0,1.4,0.6,2.8c0.6,1.6,3,5.4,4.8,6.6
		c0.6,0.4,1.2,0.4,1.8,0.4c2,0,3-1.2,3.8-1.6c1.4-0.6,1.8-1.2,3.4-3.6c11.6-17.4,22.4-33,22.4-53.2c0-0.8,0-3.2-0.2-4.2
		c-0.2-1.4-0.6-1.6-1.2-2.2C623.3,235.2,622.9,234,622.7,233.2z"/>
	<path class="st0" d="M695.7,229.4c0,0.8-1.2,3-1.6,3.8c-6.8,13.6-10.8,24.6-17.2,41c-0.6,1.4-0.8,2.4-0.8,3c0,0.4,0.2,0.6,0.4,0.6
		c0.6,0,1.6-0.6,3.2-2c6.2-5.4,15.2-12.4,20-15.2c3.4-2,4.4-2.4,6-2.4c2,0,3.6,0.2,3.6,2.6c0,6.2-3.2,6.8-9.2,12.2
		c-14.2,12.8-25.8,27.6-36.6,43c-2.8,4-5.6,8.8-6.8,11.8c-8.2,20.4-14,38.2-21.6,58.8c-0.8,2.2-3.8,7.4-9,7.4
		c-0.8,0-1.6-0.8-4.8-1.8c-5-1.6-5.4-7.6-5.4-8.8c0-1.8,0.6-3.8,1-5c9.4-25.4,25.6-48,33.2-73.8c1-3.4,1.8-5.6,4.6-13.2
		c7.4-20.2,16.2-40.6,22.6-61.6c0.8-2.6,2-3.6,3.4-4.6c1-0.8,2-1.4,3.2-1.4c2,0,3-0.2,4.6-0.2c2,0,4.8,0.6,5.6,1.8
		C694.9,226.8,695.7,228.2,695.7,229.4z M711.7,196.8c-0.6,2.8-3.2,3.4-5.4,3.4c-1.8,0-7.4-0.6-11.2-6.4c-0.8-1.2-1-2.8-1-4.8
		c0-1.6-0.4-3.2-0.4-4.2c0-0.6,0.2-1,1.2-2.2c2.6-3.2,6.2-5.4,10.4-5.4c3.4,0,5.6,0.6,9.4,3.8c3.4,3,3.4,3.2,3.4,4.8
		C718.1,191.6,712.5,192.8,711.7,196.8z"/>
	<path class="st0" d="M740.3,317.6c-2.4,0-4.4-0.2-7.6-1.4c-4.4-1.6-11.4-4.8-12.8-5.6c-4-2.2-7.8-7.2-10-13.8
		c-1.4-4-2.4-11.6-2.4-15.4c0-1.8,0.2-3.8,1-6.6c5.6-20.4,19.2-38,34.4-54.2c3.4-3.6,11.6-9,21.4-9c5.4,0,8.2,0.8,12.2,2.2
		c2.2,0.8,6.4,4.4,6.4,12.4c0,5.2-2.2,9.6-4.6,14.4c-2,4-3.6,6.2-6.4,9.4c-13.8,15.6-29.4,33-46.4,42.4c-1,0.6-1.2,1-1.2,1.6
		c0,3.2,3,7.4,4.8,8.4c2.2,1.2,4.2,1.6,6.2,1.6c3.4,0,6.4-0.8,15.4-5.6c13.8-7.4,22.2-18.2,34.2-25.8c2.2-1.4,3.2-1.4,4-1.4
		c1.2,0,4,2,4,4c0,1.8-0.2,2-0.2,2.6c0,0.8,0,2-1,2.8c-9.6,8.2-13.8,18.2-44.2,35C743.9,317.6,742.9,317.6,740.3,317.6z
		 M766.1,226.2c0-1.6,0-2.4-1.2-2.4s-2.4,0.6-4.2,1.8c-2.2,1.4-2,0.8-4,2.6c-13,11.6-27,28-31.4,45.8c0,0.8,0.2,1,0.4,1
		c0.4,0,0.8-0.2,1.4-0.6c11.8-9,21.6-20,30.6-30.8c3-3.6,2.2-4.2,4.8-8.2C764.5,232.4,766.1,229.8,766.1,226.2z"/>
	<path class="st0" d="M851.9,276.8c2.8,0,6.6,4.6,6.6,5.2c0,0.8-0.8,1.2-0.8,2c0,1.2-0.2,1.8-1.6,2.4c-6.2,2.6-13.4,8.2-22,15.2
		c-11.2,9-21.2,14.8-29.6,14.8c-11,0-19.2-7.8-20.2-9.8c-1.6-3.2-2.4-6.2-2.4-9.4c0-4.8,1.8-10,3.2-15c0.4-1.4,1-5,2.4-7.8
		c10.4-20.8,24.8-45.2,41.6-53.6c1.2-0.6,1.6-0.6,3.2-0.6c6.8,0,15.6,3.2,20.8,8.4c0.8,0.8,0.8,1.2,0.8,2.8c0,2.2,0.4,2.4,0.4,3
		c0,0.4,0,0.6-0.2,1.4c-0.6,2.4-6.8,11.8-6.8,18.8c0,1.6-1.2,3-3.8,3c-1.4,0-2.8-0.4-4-1.4l-5.2-3.8c-1.6-1.2-2.2-2.8-2.2-4.4
		c0-4,4.4-8.8,4.4-12c0-0.8-0.6-2-1.6-2c-1.2,0-1.6,0.4-3.2,2c-8.4,8.4-17.6,20.2-24.4,32.2c-7,12.4-11.6,25.6-11.6,30.6
		c0,2.6,1.6,4.2,3.4,4.2c9.2,0,18.6-5.2,28.4-12.6C836.3,283.8,846.3,276.8,851.9,276.8z"/>
	<path class="st0" d="M904.7,230.4c-2,4.2-4.6,11.8-4.6,12.4c0,0.4,0.4,0.6,0.8,0.6c0.6,0,3-0.4,5-0.8c8.8-1.8,20.2-6,26.8-10
		c1-0.6,1.8-1,2.2-1c3.4,0,9.8,2.8,9.8,5.2c0,2.6-2.2,5.8-6.6,7.6c-5.4,2.2-5.4,2.8-9,4.2c-9.8,3.8-26.8,7.6-31,9
		c-1.8,0.6-3,1.6-3.8,3c-1.6,2.8-2.6,6.6-3.4,9.6c-0.6,2.2-1.8,4.2-2.2,6.4c-1.2,6.6-8,23.6-9.2,33.6c-0.2,1.8-2.2,7-5,8.4
		c-0.8,0.4-2.2,0.6-3,0.6c-2.4,0-5.6-1-7.2-2.2c-1.6-1.2-2.2-3-2.2-4.8c0-1.6,0.2-4.2,0.8-6c5-14.8,8.6-32.2,15-47.6
		c0.2-0.6,0.4-1,0.4-1.4c0-0.4-0.2-0.8-1-1.2c-7.2-3.6-8.4-8.8-13-12.6c-1-0.8-1-1.8-1-2.4c0-1.4,0.8-1.8,2.4-2.6c1.2-0.6,2.2-1,4-1
		c4.4,0,9.4,3.2,13,3.2c1.8,0,3-1,3.4-2.8c0.6-2.2,1.6-5.2,3.2-9.4c4.8-12.2,10.2-27.8,17-42.4c1.2-2.6,1.4-2.6,2.2-2.6
		c3.2,0,3.6-1,5.6-1c1.8,0,5.2,0.6,7.6,1.6c1,0.4,1.8,0.8,1.8,1.4c0,0.4,0,1-0.2,2.2C920.7,203.2,911,216.8,904.7,230.4z"/>
</g>
<g id="Layer_2">
</g>
</svg>
