<?xml version="1.0" standalone="no"?>
<!DOCTYPE svg PUBLIC "-//W3C//DTD SVG 20010904//EN"
 "http://www.w3.org/TR/2001/REC-SVG-20010904/DTD/svg10.dtd">
<svg version="1.0" xmlns="http://www.w3.org/2000/svg"
 width="5000.000000pt" height="4000.000000pt" viewBox="0 0 5000.000000 4000.000000"
 preserveAspectRatio="xMidYMid meet">
<metadata>
Created by potrace 1.14, written by Peter Selinger 2001-2017
</metadata>
<g transform="translate(0.000000,4000.000000) scale(0.100000,-0.100000)"
fill="#000000" stroke="none">
<path d="M23793 21874 c7 -42 6 -41 32 -46 31 -5 35 -17 35 -113 l0 -90 181 3
c144 2 178 5 166 15 -18 15 -30 60 -26 107 1 19 2 50 2 68 0 20 5 32 14 32 8
0 13 8 11 18 -2 12 5 18 25 20 15 2 27 8 27 13 0 5 -97 9 -236 9 l-237 0 6
-36z"/>
</g>
</svg>
